PathFileType	4	(X/Y/Z)	C:\Users\WrightLab\Desktop\Jo\P5V114.trc
DataRate	CameraRate	NumFrames	NumMarkers	Units	OrigDataRate	OrigDataStartFrame	OrigNumFrames
100.00	100.00	      15	19	mm	100.00	915	      1045
Frame#	Time	Headset_Front			Headset_Back			Headset_Left			Headset_Right			Left_Shoulder			Right_Shoulder			Sternum			C7			Left Elbow			Right Elbow			Left Wrist			Right Wrist			Left ASIS			Right ASIS			S2			Left Knee			Right Knee			Left Ankle			Right Ankle			
		X1	Y1	Z1	X2	Y2	Z2	X3	Y3	Z3	X4	Y4	Z4	X5	Y5	Z5	X6	Y6	Z6	X7	Y7	Z7	X8	Y8	Z8	X9	Y9	Z9	X10	Y10	Z10	X11	Y11	Z11	X12	Y12	Z12	X13	Y13	Z13	X14	Y14	Z14	X15	Y15	Z15	X16	Y16	Z16	X17	Y17	Z17	X18	Y18	Z18	X19	Y19	Z19	

915	9.140	-151.63405	1541.47424	-764.76190	78.08750	1757.33838	-758.91760				-74.19320	1615.82727	-870.04852	71.08450	1461.76599	-578.80743	139.13208	1467.64539	-985.52991				222.47844	1525.60559	-764.77496	89.62693	1199.60754	-477.19318	254.09122	1209.93604	-1068.07446	-104.84887	1105.15344	-527.40784	49.51227	1084.43481	-1043.08838	-15.31240	912.56219	-698.40027	102.85682	951.30981	-968.65564	288.46524	974.45306	-728.87604	20.17085	491.37231	-655.47565	68.59161	519.02338	-1014.59705	176.58696	80.81493	-713.68744	373.59650	262.46310	-841.00568	
916	9.150	-155.87437	1542.69006	-759.70929	74.77135	1757.62500	-760.95245				-81.54893	1616.65161	-867.99139	71.47330	1462.78601	-579.98584	129.75639	1467.39502	-988.64380				217.80649	1525.34412	-769.57336	80.91753	1202.39075	-482.12054	243.03609	1209.50159	-1073.46631	-105.19961	1106.86072	-530.30969	39.39665	1083.39502	-1043.72766	-18.44375	911.80975	-697.71429	91.18554	951.48682	-970.65961	283.40906	974.24878	-735.65692	16.36227	491.45535	-656.50586	49.05365	523.51001	-1017.33429	176.13403	81.08488	-713.58600	355.87158	258.20178	-854.52258	
917	9.160	-160.04855	1544.00232	-754.94385	71.22348	1757.76917	-764.47168				-88.77041	1617.83337	-866.10504	71.10173	1463.79065	-581.54663	120.11987	1466.68298	-991.43671	14.92081	1314.61182	-821.20300	213.08498	1525.27747	-774.38605	91.43217	1199.38928	-482.51419	231.40457	1208.65503	-1078.41711	-106.10850	1108.68372	-533.04126	28.61717	1082.63110	-1044.50403	-22.60387	912.97546	-696.82043	79.94410	951.16479	-971.63904	277.55600	973.61627	-741.43451	12.45414	491.40305	-657.43304	30.59164	527.36359	-1019.54718	176.17264	80.98115	-714.01532	338.36743	253.43668	-867.09552	
918	9.170	-164.17514	1545.17786	-750.63593	67.68777	1757.82971	-767.03516				-95.89738	1618.10681	-864.13031	69.18073	1464.67334	-584.41522	110.36716	1466.25903	-994.36011	8.71798	1314.45935	-821.17957	208.22662	1525.15808	-779.64789	92.36208	1198.56921	-488.54138	219.58215	1207.98792	-1083.57520	-106.50686	1109.69324	-535.77380	17.89006	1081.76929	-1045.30005	-27.86872	913.17316	-695.51666	68.22929	950.84222	-973.19702	271.65182	973.67188	-748.07281	8.58625	490.42868	-659.01007	12.46727	531.94342	-1021.50104	176.37637	81.12730	-713.96771	318.46326	247.01512	-880.77576	
919	9.180	-168.21497	1546.58276	-746.89380	63.78765	1758.28271	-771.00311				-102.70869	1618.65942	-862.21167	69.28491	1465.04236	-585.90234	100.39051	1465.65771	-997.26471	2.86285	1314.61731	-820.65491	203.03743	1525.48999	-786.05603	91.76955	1199.14124	-490.32306	207.47903	1207.21033	-1088.52942	-106.49419	1110.43835	-537.50885	6.37869	1081.05017	-1046.04529	-31.42245	913.19275	-694.93182	57.39614	950.73450	-974.14404	266.76151	973.93292	-754.98053	3.27205	490.94540	-660.97156	-4.52919	534.95197	-1021.32587	176.48683	81.21230	-714.13898	299.82108	240.99818	-893.49078	
920	9.190	-172.17967	1546.95386	-742.05524	60.03762	1758.36963	-773.72864				-109.37374	1618.57751	-860.23346	68.99337	1465.38196	-588.03845	90.42641	1465.36011	-999.95221	-3.25474	1315.06812	-821.42139	198.12143	1525.28479	-790.88049	92.01965	1200.03149	-495.56964	195.24724	1206.62134	-1093.23083	-106.81996	1110.94763	-539.94720	-4.19084	1079.91699	-1045.76013	-35.83047	914.42523	-692.98523	45.79810	950.34760	-974.89471	261.05603	973.40051	-761.92261	0.43074	489.34760	-663.50623	-21.50644	537.82928	-1021.42529	176.31923	81.94840	-714.76074	279.27765	234.11528	-906.46436	
921	9.200	-175.99132	1548.15723	-738.57538	55.78929	1758.56177	-777.71265				-115.96676	1618.66467	-858.32074	68.72007	1465.39270	-590.50043	80.36185	1464.72888	-1002.41870	-9.02242	1314.99170	-820.50500	193.32701	1524.69775	-795.87091	93.56977	1199.43433	-498.31396	183.15950	1205.86633	-1097.96106	-106.18347	1111.90564	-543.04761	-15.83322	1079.17944	-1046.45813	-38.97060	914.51459	-691.28156	34.54903	950.36084	-975.38751	255.49248	972.84491	-767.85779	-2.65531	490.09821	-663.51764	-37.51375	539.66986	-1020.62146	175.58679	82.56206	-714.47339	259.14771	226.86671	-919.82983	
922	9.210	-179.84793	1548.35742	-734.10681	51.69266	1758.26367	-780.03955				-122.62936	1618.37183	-856.37964	70.37601	1465.85461	-592.15417	70.27264	1464.30737	-1005.14032	-14.90652	1315.36047	-820.57257	188.23160	1524.47607	-801.24249	93.38489	1197.92859	-504.53772	169.95659	1205.36255	-1102.66565	-106.11915	1112.07861	-544.59619	-26.83205	1077.98059	-1046.80945	-42.88083	914.97498	-690.33398	23.71976	949.47870	-975.55133	249.88301	972.32031	-774.63495	-3.97914	490.78824	-663.31598	-53.11711	541.83893	-1018.71478	176.02260	82.51876	-714.58185	239.55295	219.18022	-932.25983	
923	9.220	-184.08688	1549.13159	-730.71613	46.98952	1758.38232	-784.19556				-129.30132	1617.87708	-854.43011	68.78671	1465.90100	-595.11261	60.11828	1463.52991	-1007.50189	-20.95950	1315.30957	-820.99902	182.79524	1524.64734	-807.76288	96.33855	1197.84985	-510.11853	157.25888	1204.30725	-1106.95618	-106.27322	1113.01648	-546.88922	-37.54096	1076.08167	-1046.00269	-46.13663	916.27063	-688.64429	12.59880	949.97003	-976.25378	243.97083	972.39227	-782.57697	-6.84369	491.61380	-662.56592	-68.06268	543.51532	-1017.04919	174.48416	83.22322	-714.37738	217.19797	211.04134	-944.36786	
924	9.230				42.07746	1758.55334	-787.84747				-135.97580	1617.57349	-852.28314	68.87241	1466.07104	-597.39075	50.08199	1463.14954	-1009.63519	-27.68019	1315.17200	-820.08020	177.70676	1524.35083	-812.67181	97.62452	1196.15625	-514.35608	144.62570	1203.52795	-1110.88696	-106.00901	1113.78296	-549.26288	-48.75383	1075.25415	-1045.99695	-48.39502	916.00220	-686.64392	2.17087	949.49036	-975.88953	238.98051	972.18610	-789.15057	-8.96530	491.77774	-662.36432	-82.26977	543.99963	-1013.87067	174.15565	84.02282	-715.20038	194.76213	202.87523	-956.99243	
925	9.240				36.94546	1758.60364	-790.91138				-142.50555	1617.24939	-850.39880	69.84535	1465.38098	-599.88611	39.91448	1462.74622	-1012.03442	-32.94611	1315.74817	-820.55902	172.44240	1523.82104	-817.87122	98.87495	1196.48901	-518.64716	131.73468	1202.52246	-1114.87476	-105.75415	1114.26941	-550.48193	-60.36414	1074.57520	-1046.10645	-52.10903	916.34363	-685.36169	-7.73933	949.57135	-976.22852	234.12767	971.52441	-796.69330	-10.16665	491.46268	-662.61133	-95.68415	544.47821	-1011.04651	173.96782	84.28757	-715.23981	172.36824	194.22055	-968.97919	
926	9.250	-196.01553	1549.36218	-720.53717	31.66131	1758.36035	-793.92822				-149.00366	1615.97363	-847.74628	70.26907	1465.92773	-602.81274	29.57078	1462.32556	-1014.55383	-38.23698	1315.38879	-820.80487	166.79755	1523.70959	-823.99957	100.15786	1195.54260	-523.58563	118.66296	1201.96252	-1119.14331	-105.36733	1114.54492	-551.64905	-71.27424	1073.16663	-1045.18811	-54.00856	916.42560	-684.24103	-18.38897	949.51758	-976.52258	228.34991	970.85706	-804.60052	-12.66337	491.50717	-662.94794	-108.54148	544.83765	-1007.43719	173.71306	84.41522	-715.03784	145.51768	184.18993	-982.31244	
927	9.260				25.94933	1758.26575	-798.09839				-155.45624	1614.84802	-845.69666	70.36696	1465.77466	-605.48407	19.24249	1461.58545	-1016.62793	-43.93478	1315.81921	-821.41980	161.19472	1523.23755	-829.55640	101.76482	1194.80847	-529.90192	105.32673	1201.17004	-1123.77332	-104.79350	1115.25696	-551.70721	-82.26958	1072.22461	-1044.93750	-56.09334	916.91309	-683.01837	-27.29800	948.62506	-973.16650	223.51010	970.58569	-811.85889	-14.68863	491.64462	-663.45648	-120.49940	544.65662	-1003.97754	174.00380	84.50262	-714.67810	122.49509	176.27190	-994.01233	
928	9.270				20.19497	1757.96692	-801.17096				-161.78123	1613.53174	-842.85535	70.99703	1464.61316	-607.41986	8.77233	1461.24512	-1018.60529	-49.05711	1315.40234	-820.98499	155.23035	1523.23401	-835.77960	103.81899	1193.45776	-534.50000	92.09748	1200.27136	-1127.14172	-104.38910	1115.42395	-551.81250	-94.20602	1071.38062	-1043.94482	-58.65947	916.15833	-681.59216	-37.15455	949.22876	-973.56598	217.67885	970.17627	-819.74207	-16.29026	491.07016	-664.03253	-131.50427	543.59192	-999.91968	174.06004	84.52814	-715.01123	96.46642	167.46208	-1006.40875	
929	9.280				14.35811	1757.87451	-803.53857				-168.33382	1612.35498	-841.00067				-1.91958	1461.26721	-1021.37549	-54.66079	1314.91943	-821.00275	149.32997	1522.71008	-841.19116	106.00144	1192.35645	-540.02747	78.57651	1199.49670	-1130.68115	-104.11999	1116.02869	-552.87079	-105.54895	1070.42737	-1042.95325	-59.82980	916.80316	-681.19165	-47.08950	947.08990	-971.47089	213.65518	969.90533	-827.39813	-18.59707	490.91754	-664.26721	-142.03831	542.49622	-996.04352	173.73364	84.69304	-714.87317	71.07840	159.28979	-1018.04779	
